<?xml version="1.0" encoding="UTF-8" standalone="no"?><!DOCTYPE svg PUBLIC "-//W3C//DTD SVG 1.1//EN" "http://www.w3.org/Graphics/SVG/1.1/DTD/svg11.dtd"><svg width="100%" height="100%" viewBox="0 0 2000 2000" version="1.1" xmlns="http://www.w3.org/2000/svg" xmlns:xlink="http://www.w3.org/1999/xlink" xml:space="preserve" xmlns:serif="http://www.serif.com/" style="fill-rule:evenodd;clip-rule:evenodd;stroke-linejoin:round;stroke-miterlimit:2;"><g><path d="M157.48,1615.252l0,-1180.628l420.347,0l360.542,884.13l31.707,75.111l155.035,-0.166l-91.908,221.553l-237.418,0l-373.642,-919.459l-19.46,0l15.568,919.459l-260.771,0Z" style="fill:#1c3a2a;fill-rule:nonzero;"/><path d="M1214.151,1395.678l-623.223,0l0,-237.888c59.528,-65.034 112.071,-126.931 157.628,-185.69c45.557,-58.759 85.648,-115.521 120.271,-170.287c34.624,-54.766 64.084,-108.39 88.381,-160.874c24.297,-52.484 45.557,-107.402 63.78,-158.745l451.928,0l0,716.67l165.828,0l0,196.814l-165.828,0l0,220.774l-258.765,0l-0,-220.774Zm-104.454,-370.212c5.116,46.732 13.081,93.135 23.861,138.95l-59.598,57.479c-5.537,5.344 -0.294,14.542 7.122,12.508l65.956,-18.118c0.984,3.455 1.984,6.907 3.001,10.354c2.593,8.797 15.143,8.548 17.385,-0.349c0.878,-3.483 1.739,-6.97 2.585,-10.46l66.629,15.472c7.489,1.741 12.364,-7.664 6.616,-12.78l-61.843,-55.059c8.945,-46.208 15.055,-92.893 18.305,-139.792l169.525,39.366c20.585,4.78 33.965,-21.053 18.178,-35.109l-187.865,-167.25l-5.591,-90.517c-0.958,-15.559 -6.923,-30.387 -16.997,-42.279l-11.055,-13.049c-9.186,-10.843 -26.01,-10.504 -34.754,0.693l-10.522,13.481c-9.594,12.285 -14.958,27.336 -15.293,42.92l-1.979,90.668l-181.049,174.606c-15.215,14.67 -0.815,39.954 19.567,34.356l167.816,-46.091Z" style="fill:#eeb629;"/><path d="M1010.556,1496.506l-227.836,78.279l-352.759,-861.014l227.836,-78.279l352.759,861.014Z" style="fill:#1c3a2a;"/><path d="M1494.382,1202.157c-0,-0 -55.38,-0.219 -70.244,-0.025c-6.081,-83.619 -13.279,-302.825 36.675,-470.279c-6.229,1.95 -13.016,0.992 -18.461,-2.606c-5.716,-4.278 -8.969,-11.11 -8.688,-18.244c-43.503,20.697 -82.651,49.523 -115.328,84.922c-0.454,0.534 -1.12,0.842 -1.821,0.842c-1.311,0 -2.389,-1.078 -2.389,-2.389c0,-0.211 0.028,-0.421 0.083,-0.625c15.085,-56.56 58.316,-101.517 114.242,-118.803c-77.537,-12.597 -185.047,-21.719 -260.629,0c-0.185,0.03 -0.373,0.046 -0.561,0.046c-1.906,0 -3.475,-1.569 -3.475,-3.475c0,-0.91 0.358,-1.785 0.995,-2.435c76.926,-67.178 188.076,-79.682 278.005,-31.276c-65.157,-65.157 -165.065,-153.771 -256.72,-184.395c-1.673,-0.565 -2.806,-2.144 -2.806,-3.909c0,-1.765 1.133,-3.344 2.806,-3.909c55.601,-4.778 218.929,-1.303 301.678,190.694c121.41,-157.029 276.05,-125.754 327.958,-108.596c1.673,0.565 2.806,2.144 2.806,3.909c0,1.765 -1.133,3.344 -2.806,3.909c-96.433,9.991 -213.282,74.279 -291.47,124.233c112.402,-44.291 241.403,-10.408 317.533,83.401c0.489,0.67 0.753,1.478 0.753,2.307c0,2.145 -1.765,3.909 -3.909,3.909c-0.56,0 -1.113,-0.12 -1.622,-0.352c-81.229,-41.266 -206.114,-50.606 -294.728,-51.257c51.489,31.113 82.778,87.317 82.098,147.473c-0.311,0.995 -1.238,1.677 -2.281,1.677c-1.042,0 -1.97,-0.682 -2.281,-1.677c-24.068,-46.331 -57.064,-87.446 -97.084,-120.975c-2.606,4.245 -6.595,7.467 -11.294,9.122c-4.699,1.655 0,0 0,1.303c1.84,11.521 -5.915,22.572 -17.375,24.76c-3.457,0.567 -7.005,0.114 -10.208,-1.303c-17.143,157.496 -20.99,288.768 10.546,444.024Z" style="fill:#1c3a2a;fill-rule:nonzero;"/><path d="M1097.298,385.521c-78.889,-12.551 -114.748,35.859 -118.333,114.748c-3.586,64.546 -59.167,66.338 -100.404,35.859c-23.308,-17.929 -46.616,-37.652 -59.167,-60.96c-26.894,-46.616 -53.788,-55.581 -91.44,-51.995c-34.066,16.136 -64.546,-3.586 -105.783,-5.379c-93.232,0 -166.743,51.995 -182.879,71.717c-21.515,26.894 -5.379,59.167 12.551,87.854c17.929,28.687 32.273,46.616 71.717,55.581c26.894,5.379 155.985,71.717 163.157,69.924c14.343,-3.586 10.758,-37.652 7.172,-55.581c-1.793,-60.96 -16.136,-152.399 -75.303,-161.364c62.753,7.172 80.682,102.197 84.268,166.743c30.48,10.758 50.202,8.965 78.889,-10.758c8.965,-5.379 19.722,-3.586 26.894,5.379c3.586,5.379 8.965,10.758 17.929,14.343c3.586,1.793 8.965,1.793 12.551,0c78.889,77.096 172.121,78.889 200.808,71.717c3.586,0 3.586,-5.379 0,-7.172c-84.268,-12.551 -155.985,-68.131 -175.707,-84.268c1.793,-1.793 1.793,-1.793 3.586,-3.586c35.859,7.172 175.707,-25.101 161.364,-150.606c-7.172,-55.581 17.929,-89.647 68.131,-80.682c0,-7.172 -12.551,-12.551 0,-21.515Zm-335.278,154.192c0,0 19.722,-17.929 37.652,0c0,0 -16.136,17.929 -37.652,0Zm19.722,-14.343c-8.965,0 -17.929,3.586 -25.101,10.758c1.793,-10.758 12.551,-19.722 25.101,-19.722c12.551,0 23.308,7.172 26.894,17.929c-8.965,-5.379 -17.929,-8.965 -26.894,-8.965Z" style="fill:#1c3a2a;fill-rule:nonzero;"/></g></svg>